<svg width="884" height="400" viewBox="0 0 884 400" xmlns="http://www.w3.org/2000/svg"><defs><pattern id="satori_pattern_id_1" x="0" y="0" width="0.11312217194570136" height="0.25" patternUnits="objectBoundingBox"><radialGradient id="satori_radial_id_1"><stop offset="0" stop-color="lightgray"/><stop offset="0.02" stop-color="lightgray"/><stop offset="0" stop-color="transparent"/><stop offset="1" stop-color="transparent"/></radialGradient><mask id="satori_mask_id_1"><rect x="0" y="0" width="100" height="100" fill="#fff"/></mask><rect x="0" y="0" width="100" height="100" fill="transparent"/><circle cx="75" cy="75" width="100" height="100" r="106.06601717798213" fill="url(#satori_radial_id_1)" mask="url(#satori_mask_id_1)"/></pattern><pattern id="satori_pattern_id_0" x="0" y="0" width="0.11312217194570136" height="0.25" patternUnits="objectBoundingBox"><radialGradient id="satori_radial_id_0"><stop offset="0" stop-color="lightgray"/><stop offset="0.02" stop-color="lightgray"/><stop offset="0" stop-color="transparent"/><stop offset="1" stop-color="transparent"/></radialGradient><mask id="satori_mask_id_0"><rect x="0" y="0" width="100" height="100" fill="#fff"/></mask><rect x="0" y="0" width="100" height="100" fill="transparent"/><circle cx="25" cy="25" width="100" height="100" r="106.06601717798213" fill="url(#satori_radial_id_0)" mask="url(#satori_mask_id_0)"/></pattern></defs><mask id="satori_om-id"><rect x="0" y="0" width="884" height="400" fill="#fff"/></mask><rect x="0" y="0" width="884" height="400" fill="white"/><rect x="0" y="0" width="884" height="400" fill="url(#satori_pattern_id_1)"/><rect x="0" y="0" width="884" height="400" fill="url(#satori_pattern_id_0)"/><mask id="satori_om-id-0"><rect x="321" y="100" width="242" height="80" fill="#fff"/></mask><clipPath id="satori_cp-id-0-0"><rect x="396" y="100" width="92" height="80"/></clipPath><mask id="satori_om-id-0-0"><rect x="396" y="100" width="92" height="80" fill="#fff"/></mask><image x="396" y="100" width="92" height="80" href="data:image/svg+xml;utf8,%3Csvg  fill=%22black%22 xmlns=%22http://www.w3.org/2000/svg%22 width=%2292.3076923076923%22 height=%2280%22 viewBox=%220 0 75 65%22%3E%3Cpath d=%22M37.59.25l36.95 64H.64l36.95-64z%22%3E%3C/path%3E%3C/svg%3E" preserveAspectRatio="none" clip-path="url(#satori_cp-id-0-0)" mask="url(#satori_om-id-0-0)"/><mask id="satori_om-id-0-0-0"><rect x="396" y="100" width="0" height="80" fill="#fff"/></mask><mask id="satori_om-id-1"><rect x="288" y="210" width="309" height="90" fill="#fff"/></mask><mask id="satori_om-id-1-0"><rect x="288" y="210" width="309" height="90" fill="#fff"/></mask><path fill="black" d="M306.8 271.9L299.3 271.9L288.9 235.6L297.3 235.6L303.4 260.8L303.7 260.8L310.3 235.6L317.5 235.6L324.1 260.9L324.4 260.9L330.5 235.6L338.9 235.6L328.4 271.9L321.0 271.9L314.0 248.2L313.7 248.2L306.8 271.9ZM352.3 272.5L352.3 272.5Q348.1 272.5 345.1 270.7Q342.0 269.0 340.4 265.9Q338.8 262.7 338.8 258.4L338.8 258.4Q338.8 254.2 340.4 251.0Q342.0 247.9 345.0 246.1Q348.0 244.3 352.0 244.3L352.0 244.3Q354.7 244.3 357.0 245.2Q359.4 246.0 361.1 247.7Q362.9 249.5 363.8 252.1Q364.8 254.7 364.8 258.1L364.8 258.1L364.8 260.2L341.8 260.2L341.8 255.5L357.7 255.5Q357.7 253.9 357.0 252.6Q356.3 251.4 355.0 250.7Q353.8 249.9 352.1 249.9L352.1 249.9Q350.4 249.9 349.1 250.7Q347.7 251.5 347.0 252.8Q346.3 254.2 346.2 255.8L346.2 255.8L346.2 260.2Q346.2 262.3 347.0 263.7Q347.7 265.2 349.1 266.0Q350.5 266.8 352.4 266.8L352.4 266.8Q353.7 266.8 354.7 266.5Q355.8 266.1 356.5 265.4Q357.3 264.7 357.7 263.7L357.7 263.7L364.7 264.1Q364.1 266.6 362.5 268.5Q360.8 270.4 358.3 271.4Q355.7 272.5 352.3 272.5ZM377.3 271.9L369.9 271.9L369.9 235.6L377.5 235.6L377.5 249.2L377.7 249.2Q378.2 248.1 379.1 247.0Q380.1 245.8 381.6 245.1Q383.2 244.3 385.4 244.3L385.4 244.3Q388.4 244.3 390.9 245.9Q393.5 247.4 395.0 250.5Q396.5 253.6 396.5 258.3L396.5 258.3Q396.5 262.9 395.0 266.0Q393.6 269.2 391.0 270.8Q388.5 272.4 385.4 272.4L385.4 272.4Q383.2 272.4 381.7 271.6Q380.2 270.9 379.2 269.8Q378.2 268.7 377.7 267.6L377.7 267.6L377.3 267.6L377.3 271.9ZM377.3 258.3L377.3 258.3Q377.3 260.7 378.0 262.5Q378.6 264.3 379.9 265.3Q381.2 266.4 383.0 266.4L383.0 266.4Q384.9 266.4 386.2 265.3Q387.4 264.3 388.1 262.5Q388.8 260.7 388.8 258.3L388.8 258.3Q388.8 255.9 388.1 254.1Q387.4 252.3 386.2 251.3Q384.9 250.3 383.0 250.3L383.0 250.3Q381.2 250.3 379.9 251.3Q378.6 252.3 378.0 254.1Q377.3 255.9 377.3 258.3ZM399.6 244.7L416.0 244.7L416.0 250.3L399.6 250.3L399.6 244.7ZM403.3 264.5L403.3 238.1L410.9 238.1L410.9 263.5Q410.9 264.6 411.2 265.2Q411.5 265.7 412.1 266.0Q412.7 266.2 413.4 266.2L413.4 266.2Q414.0 266.2 414.5 266.1Q415.0 266.0 415.3 266.0L415.3 266.0L416.5 271.6Q415.9 271.8 414.9 272.0Q413.9 272.2 412.4 272.3L412.4 272.3Q409.7 272.4 407.6 271.6Q405.6 270.7 404.4 269.0Q403.3 267.2 403.3 264.5L403.3 264.5ZM428.5 271.9L420.9 271.9L420.9 244.7L428.3 244.7L428.3 249.4L428.6 249.4Q429.3 246.9 431.1 245.6Q432.8 244.3 435.1 244.3L435.1 244.3Q435.7 244.3 436.3 244.3Q437.0 244.4 437.5 244.5L437.5 244.5L437.5 251.2Q437.0 251.1 436.0 251.0Q435.1 250.8 434.3 250.8L434.3 250.8Q432.6 250.8 431.3 251.6Q430.0 252.3 429.3 253.6Q428.5 254.8 428.5 256.5L428.5 256.5L428.5 271.9ZM448.9 271.9L441.4 271.9L441.4 244.7L448.9 244.7L448.9 271.9ZM445.2 241.1L445.2 241.1Q443.5 241.1 442.3 240.0Q441.1 238.9 441.1 237.3L441.1 237.3Q441.1 235.7 442.3 234.6Q443.5 233.5 445.2 233.5L445.2 233.5Q446.9 233.5 448.1 234.6Q449.3 235.7 449.3 237.3L449.3 237.3Q449.3 238.9 448.1 240.0Q446.9 241.1 445.2 241.1ZM467.3 282.7L467.3 282.7Q463.6 282.7 461.0 281.7Q458.3 280.7 456.8 279.0Q455.3 277.3 454.8 275.1L454.8 275.1L461.8 274.2Q462.1 275.0 462.8 275.7Q463.5 276.4 464.6 276.9Q465.8 277.3 467.4 277.3L467.4 277.3Q469.9 277.3 471.5 276.1Q473.1 274.9 473.1 272.1L473.1 272.1L473.1 267.1L472.8 267.1Q472.3 268.2 471.3 269.2Q470.3 270.3 468.8 270.9Q467.2 271.5 465.0 271.5L465.0 271.5Q462.0 271.5 459.4 270.1Q456.9 268.7 455.4 265.7Q454.0 262.8 454.0 258.2L454.0 258.2Q454.0 253.6 455.5 250.5Q457.0 247.4 459.5 245.8Q462.0 244.3 465.0 244.3L465.0 244.3Q467.3 244.3 468.8 245.1Q470.4 245.8 471.3 247.0Q472.3 248.1 472.8 249.2L472.8 249.2L473.1 249.2L473.1 244.7L480.6 244.7L480.6 272.2Q480.6 275.7 478.9 278.0Q477.2 280.4 474.2 281.5Q471.2 282.7 467.3 282.7ZM467.4 265.9L467.4 265.9Q469.3 265.9 470.5 264.9Q471.8 264.0 472.5 262.3Q473.2 260.6 473.2 258.2L473.2 258.2Q473.2 255.8 472.5 254.0Q471.8 252.3 470.5 251.3Q469.3 250.3 467.4 250.3L467.4 250.3Q465.6 250.3 464.3 251.3Q463.0 252.3 462.3 254.1Q461.7 255.9 461.7 258.2L461.7 258.2Q461.7 260.6 462.4 262.3Q463.0 264.0 464.3 264.9Q465.6 265.9 467.4 265.9ZM498.9 282.7L498.9 282.7Q495.2 282.7 492.6 281.7Q490.0 280.7 488.5 279.0Q486.9 277.3 486.5 275.1L486.5 275.1L493.5 274.2Q493.8 275.0 494.5 275.7Q495.2 276.4 496.3 276.9Q497.4 277.3 499.1 277.3L499.1 277.3Q501.6 277.3 503.2 276.1Q504.8 274.9 504.8 272.1L504.8 272.1L504.8 267.1L504.5 267.1Q504.0 268.2 503.0 269.2Q502.0 270.3 500.4 270.9Q498.8 271.5 496.7 271.5L496.7 271.5Q493.6 271.5 491.1 270.1Q488.6 268.7 487.1 265.7Q485.6 262.8 485.6 258.2L485.6 258.2Q485.6 253.6 487.1 250.5Q488.6 247.4 491.2 245.8Q493.7 244.3 496.7 244.3L496.7 244.3Q499.0 244.3 500.5 245.1Q502.0 245.8 503.0 247.0Q503.9 248.1 504.5 249.2L504.5 249.2L504.7 249.2L504.7 244.7L512.3 244.7L512.3 272.2Q512.3 275.7 510.5 278.0Q508.8 280.4 505.8 281.5Q502.8 282.7 498.9 282.7ZM499.1 265.9L499.1 265.9Q500.9 265.9 502.2 264.9Q503.4 264.0 504.1 262.3Q504.8 260.6 504.8 258.2L504.8 258.2Q504.8 255.8 504.1 254.0Q503.5 252.3 502.2 251.3Q500.9 250.3 499.1 250.3L499.1 250.3Q497.2 250.3 495.9 251.3Q494.7 252.3 494.0 254.1Q493.3 255.9 493.3 258.2L493.3 258.2Q493.3 260.6 494.0 262.3Q494.7 264.0 495.9 264.9Q497.2 265.9 499.1 265.9ZM530.7 272.5L530.7 272.5Q526.5 272.5 523.5 270.7Q520.5 269.0 518.8 265.9Q517.2 262.7 517.2 258.4L517.2 258.4Q517.2 254.2 518.8 251.0Q520.5 247.9 523.4 246.1Q526.4 244.3 530.4 244.3L530.4 244.3Q533.1 244.3 535.5 245.2Q537.8 246.0 539.5 247.7Q541.3 249.5 542.3 252.1Q543.2 254.7 543.2 258.1L543.2 258.1L543.2 260.2L520.2 260.2L520.2 255.5L536.1 255.5Q536.1 253.9 535.4 252.6Q534.7 251.4 533.4 250.7Q532.2 249.9 530.5 249.9L530.5 249.9Q528.8 249.9 527.5 250.7Q526.2 251.5 525.4 252.8Q524.7 254.2 524.7 255.8L524.7 255.8L524.7 260.2Q524.7 262.3 525.4 263.7Q526.2 265.2 527.6 266.0Q528.9 266.8 530.8 266.8L530.8 266.8Q532.1 266.8 533.2 266.5Q534.2 266.1 534.9 265.4Q535.7 264.7 536.1 263.7L536.1 263.7L543.1 264.1Q542.5 266.6 540.9 268.5Q539.3 270.4 536.7 271.4Q534.1 272.5 530.7 272.5ZM555.7 271.9L548.2 271.9L548.2 244.7L555.5 244.7L555.5 249.4L555.8 249.4Q556.5 246.9 558.3 245.6Q560.1 244.3 562.3 244.3L562.3 244.3Q562.9 244.3 563.6 244.3Q564.2 244.4 564.7 244.5L564.7 244.5L564.7 251.2Q564.2 251.1 563.2 251.0Q562.3 250.8 561.5 250.8L561.5 250.8Q559.9 250.8 558.6 251.6Q557.2 252.3 556.5 253.6Q555.7 254.8 555.7 256.5L555.7 256.5L555.7 271.9ZM591.3 252.4L591.3 252.4L584.4 252.9Q584.2 252.0 583.6 251.3Q583.0 250.5 582.1 250.1Q581.1 249.7 579.8 249.7L579.8 249.7Q578.1 249.7 576.8 250.4Q575.6 251.1 575.6 252.4L575.6 252.4Q575.6 253.3 576.4 254.0Q577.2 254.7 579.1 255.1L579.1 255.1L584.0 256.1Q588.0 256.9 590.0 258.7Q591.9 260.5 591.9 263.5L591.9 263.5Q591.9 266.2 590.4 268.2Q588.8 270.2 586.1 271.3Q583.3 272.5 579.8 272.5L579.8 272.5Q574.4 272.5 571.2 270.2Q568.0 267.9 567.4 264.0L567.4 264.0L574.8 263.6Q575.2 265.3 576.5 266.1Q577.8 267.0 579.8 267.0L579.8 267.0Q581.8 267.0 583.0 266.2Q584.2 265.5 584.2 264.2L584.2 264.2Q584.2 263.2 583.4 262.5Q582.5 261.9 580.7 261.5L580.7 261.5L576.0 260.6Q572.0 259.8 570.1 257.8Q568.1 255.8 568.1 252.8L568.1 252.8Q568.1 250.2 569.6 248.3Q571.0 246.4 573.6 245.3Q576.2 244.3 579.7 244.3L579.7 244.3Q584.9 244.3 587.8 246.5Q590.8 248.7 591.3 252.4Z "/></svg>